<?xml version="1.0" standalone="no"?>
<!DOCTYPE svg PUBLIC "-//W3C//DTD SVG 20010904//EN"
 "http://www.w3.org/TR/2001/REC-SVG-20010904/DTD/svg10.dtd">
<svg version="1.0" xmlns="http://www.w3.org/2000/svg"
 width="2048.000000pt" height="2048.000000pt" viewBox="0 0 2048.000000 2048.000000"
 preserveAspectRatio="xMidYMid meet">

<g transform="translate(0.000000,2048.000000) scale(0.100000,-0.100000)"
fill="#000000" stroke="none">
<path d="M8569 14462 c-13 -11 -36 -22 -50 -25 -71 -18 -253 -273 -284 -400
-12 -45 -27 -49 -81 -23 -28 13 -56 31 -63 40 -15 18 -53 21 -82 6 -35 -19
-49 -64 -49 -155 l0 -85 -27 0 c-16 1 -48 5 -73 10 -58 12 -161 -5 -195 -32
-29 -23 -30 -40 -10 -154 14 -81 42 -164 73 -216 11 -18 13 -31 6 -38 -9 -9
-121 -22 -369 -40 -66 -5 -201 -10 -301 -10 -169 0 -264 -9 -429 -41 -164 -31
-310 -45 -319 -30 -4 6 -22 11 -41 11 -61 0 -83 -63 -45 -124 17 -28 20 -64
31 -301 11 -265 10 -347 -10 -475 -13 -85 -48 -351 -61 -465 -36 -300 -56
-438 -80 -565 -5 -25 -16 -115 -25 -200 -20 -208 -38 -379 -56 -540 -5 -52
-13 -169 -17 -260 -4 -91 -10 -170 -14 -176 -4 -7 -3 -25 3 -42 10 -28 5 -36
-96 -168 -58 -77 -152 -197 -208 -269 -57 -71 -117 -153 -135 -180 -67 -108
-150 -317 -202 -510 -46 -172 -51 -605 -10 -762 45 -169 132 -381 190 -463 10
-14 30 -47 46 -75 89 -161 349 -456 528 -600 28 -22 66 -54 85 -70 144 -122
228 -174 556 -340 143 -72 285 -145 315 -163 144 -81 561 -228 813 -286 121
-28 500 -83 665 -96 72 -6 164 -15 204 -20 177 -24 332 -33 593 -34 186 -1
287 3 300 10 14 8 70 8 190 2 94 -5 368 -7 610 -5 l440 5 316 41 c173 22 362
49 420 60 57 11 136 25 174 31 412 70 730 149 880 220 118 56 194 90 199 90
14 0 366 144 427 175 93 46 351 199 386 229 15 12 46 34 68 48 22 14 68 50
101 79 141 123 180 154 287 231 61 45 117 88 124 97 18 24 15 73 -7 101 -11
14 -20 41 -20 61 0 42 -15 58 -85 89 -44 19 -80 37 -220 108 -16 9 -70 42
-118 74 -48 32 -89 58 -91 58 -3 0 -38 20 -78 44 -41 24 -133 74 -204 111 -71
37 -141 76 -156 86 -14 11 -30 19 -35 19 -5 0 -55 29 -111 65 -117 74 -547
292 -702 354 -58 24 -123 51 -145 61 -22 10 -62 27 -89 39 -29 13 -46 25 -40
30 9 9 328 22 564 24 63 1 169 -4 235 -11 304 -32 455 -44 785 -62 216 -11
766 -15 791 -5 25 9 41 52 29 75 -5 10 -10 41 -10 69 0 149 -138 501 -283 725
-44 67 -133 188 -282 385 -72 96 -279 308 -395 405 -30 25 -82 68 -115 96
-257 215 -354 284 -551 386 -272 143 -456 219 -719 298 -211 64 -323 84 -535
96 -102 6 -193 13 -202 16 -14 4 -16 17 -12 102 3 53 9 144 15 201 5 58 9 340
9 628 0 572 0 570 -58 611 -16 12 -45 36 -64 54 -18 18 -76 62 -127 98 -51 36
-121 88 -154 116 -186 153 -328 261 -402 304 -22 13 -83 51 -135 85 -52 34
-111 70 -130 80 -19 10 -51 35 -71 56 l-36 39 -141 0 c-78 0 -142 3 -142 6 0
3 15 31 33 62 88 152 109 248 65 289 -31 27 -131 44 -193 32 -27 -5 -52 -6
-56 -2 -4 5 -14 62 -24 127 -18 131 -43 209 -87 273 -41 60 -63 73 -129 73
-98 0 -286 -89 -368 -174 -19 -20 -40 -36 -45 -36 -6 0 -18 13 -28 29 -26 46
-60 64 -109 56 -33 -6 -53 -20 -108 -76 -37 -38 -70 -69 -73 -69 -3 0 -15 20
-27 45 -34 72 -87 139 -145 184 -29 23 -57 41 -61 41 -5 0 -16 6 -24 14 -29
25 -57 27 -82 8z m60 -147 c40 -20 97 -89 128 -155 15 -30 35 -67 45 -82 10
-14 18 -31 18 -37 0 -22 -35 -91 -47 -91 -17 0 -51 46 -58 79 -8 39 -37 63
-71 59 -42 -5 -117 -135 -134 -234 -7 -41 -16 -77 -20 -79 -4 -2 -40 27 -80
65 -71 67 -72 70 -65 107 15 82 111 250 193 337 48 51 51 52 91 31z m1053 -65
c15 -30 29 -73 30 -94 3 -43 -6 -52 -107 -99 -68 -32 -153 -88 -210 -137 -26
-23 -51 -38 -55 -33 -5 4 -10 31 -12 58 -3 28 -11 71 -18 97 -13 45 -13 48 14
88 15 23 47 55 72 73 55 38 211 107 239 104 13 -1 29 -20 47 -57z m-564 -117
c38 -55 82 -190 83 -256 1 -34 6 -78 11 -98 11 -40 4 -58 -59 -144 -20 -27
-58 -93 -84 -145 -46 -92 -48 -94 -58 -67 -6 15 -15 53 -20 85 -5 32 -23 94
-40 138 -19 49 -30 95 -29 121 1 23 -4 53 -12 67 -16 30 -4 76 39 150 27 47
131 174 143 175 4 1 15 -11 26 -26z m505 -239 c8 -8 -35 -122 -69 -181 -45
-77 -143 -223 -191 -283 -24 -30 -50 -62 -56 -70 -94 -121 -218 -242 -234
-227 -20 21 130 337 216 459 70 96 203 233 271 277 49 32 54 34 63 25z m-1397
-73 c62 -43 169 -151 213 -213 8 -13 26 -32 39 -43 16 -14 27 -42 38 -95 9
-41 22 -90 30 -109 20 -47 18 -81 -3 -81 -10 0 -52 13 -93 29 -41 17 -95 36
-120 43 -31 9 -46 19 -48 33 -2 11 -21 38 -42 60 -40 42 -99 152 -117 220 -36
128 -35 122 -11 165 13 22 28 40 34 40 6 0 42 -22 80 -49z m474 -12 c147 -213
180 -316 180 -561 0 -119 -9 -178 -27 -178 -8 0 -68 93 -117 183 -15 27 -43
97 -63 155 -36 104 -37 111 -37 262 -1 148 4 190 21 190 4 0 24 -23 43 -51z
m1298 11 c1 -9 -21 -54 -49 -100 -29 -47 -55 -100 -58 -119 -6 -35 -7 -35
-156 -88 -172 -62 -171 -62 -168 -47 5 25 148 257 162 262 9 3 39 21 68 39
102 65 194 89 201 53z m-2091 -136 c63 -21 78 -36 98 -97 9 -28 30 -77 46
-109 16 -31 29 -60 29 -63 0 -3 -21 -5 -47 -5 -58 0 -129 25 -165 58 -43 40
-96 181 -81 219 7 18 62 16 120 -3z m2339 -259 c10 -8 24 -15 31 -15 14 0 146
-77 223 -130 30 -21 81 -54 114 -75 80 -50 189 -134 423 -327 28 -24 70 -56
92 -72 28 -20 38 -33 31 -40 -6 -6 -94 -14 -198 -18 -222 -8 -499 -26 -527
-33 -26 -6 -294 -35 -505 -55 -196 -17 -319 -33 -525 -65 -55 -9 -179 -20
-275 -26 -370 -20 -509 -29 -630 -39 -69 -6 -201 -15 -295 -20 -285 -16 -457
-28 -530 -40 -59 -9 -75 -8 -106 6 -29 13 -41 14 -58 4 -20 -10 -30 -6 -86 37
-135 102 -593 425 -635 447 -14 7 -69 39 -123 70 -54 31 -101 56 -104 56 -10
0 -63 41 -63 49 0 5 24 11 53 14 28 4 88 14 132 22 104 19 321 35 510 35 145
1 355 13 462 26 l51 6 51 -69 c28 -39 70 -86 93 -106 24 -19 57 -47 73 -61 60
-54 186 -138 247 -165 118 -53 217 -73 398 -78 141 -4 178 -2 257 15 50 12
108 29 129 40 34 18 40 18 76 4 33 -13 54 -14 147 -3 60 6 137 21 172 32 113
37 413 197 518 276 114 87 261 230 261 256 0 3 4 17 10 31 8 22 16 26 48 26
21 0 47 -7 58 -15z m-276 -18 c0 -7 -12 -24 -27 -37 -16 -13 -55 -47 -88 -75
-94 -82 -275 -194 -450 -279 -74 -36 -101 -44 -195 -62 -90 -16 -93 -17 -88
-5 7 21 217 207 278 247 60 38 84 52 203 117 52 29 226 88 287 97 70 11 80 11
80 -3z m-1919 -141 c210 -32 438 -101 570 -173 39 -21 63 -45 101 -100 l49
-73 -26 -10 c-39 -15 -260 -12 -345 5 -155 29 -219 62 -387 192 -80 62 -143
125 -143 143 0 9 45 28 71 29 9 1 58 -5 110 -13z m-1614 -256 c18 -10 63 -36
100 -56 129 -71 269 -161 388 -249 237 -174 261 -192 335 -245 63 -45 112 -83
208 -161 9 -8 11 -42 7 -142 -10 -235 -25 -538 -35 -707 -22 -393 -32 -733
-38 -1305 -7 -568 -8 -610 -24 -613 -18 -4 -304 134 -347 167 -28 21 -29 -4 9
231 14 83 43 235 65 335 21 96 19 122 -10 150 -52 53 -115 23 -115 -55 0 -26
-11 -103 -25 -171 -14 -68 -30 -149 -35 -179 -6 -30 -15 -74 -20 -98 -6 -23
-10 -53 -10 -66 0 -35 -10 -56 -26 -56 -8 0 -56 21 -107 46 -88 44 -395 213
-565 310 -18 11 -35 29 -38 41 -6 24 11 356 26 498 22 205 30 296 40 405 5 63
17 153 25 200 29 152 37 207 66 450 21 175 29 248 38 341 6 53 14 125 20 160
5 35 14 96 20 136 13 85 14 324 2 508 -5 72 -7 133 -4 138 6 11 15 9 50 -13z
m4911 -392 c26 -26 13 -895 -18 -1255 -6 -62 -14 -164 -20 -225 -22 -250 -33
-526 -39 -971 l-6 -469 -120 -2 c-66 -2 -151 -8 -190 -14 -184 -29 -279 -42
-520 -71 -611 -73 -646 -78 -850 -112 -266 -45 -338 -51 -680 -59 -176 -4
-383 -13 -460 -20 -77 -6 -178 -12 -225 -12 -138 -1 -593 12 -617 18 -18 3
-23 11 -23 37 0 17 -9 52 -20 76 -19 40 -20 66 -20 364 0 370 14 907 37 1417
9 195 19 488 23 650 9 351 8 331 20 350 14 22 184 38 645 60 99 4 272 13 385
18 396 19 711 45 885 73 96 15 208 28 390 44 193 17 230 21 370 40 170 24 418
43 720 55 160 7 292 14 294 16 8 8 27 4 39 -8z m417 -1568 c66 -5 131 -12 145
-15 14 -3 45 -11 70 -17 56 -13 311 -91 405 -125 154 -54 579 -268 700 -351
101 -70 154 -111 241 -187 38 -33 87 -73 108 -90 254 -200 493 -473 727 -830
64 -98 170 -312 204 -410 28 -83 56 -215 49 -227 -13 -21 -945 10 -1239 41
-276 30 -332 33 -480 28 -244 -8 -580 -24 -673 -33 -65 -5 -101 -3 -164 11
-72 17 -83 17 -107 4 -32 -18 -40 -63 -15 -90 9 -10 22 -19 27 -19 6 0 88 -38
181 -84 161 -78 252 -120 441 -203 217 -95 595 -290 685 -353 30 -21 255 -146
395 -219 55 -29 163 -92 240 -141 124 -77 298 -171 393 -211 56 -24 38 -52
-83 -131 -22 -14 -103 -79 -180 -145 -178 -151 -370 -284 -384 -266 -4 4 -13
26 -20 48 -22 65 -133 214 -223 300 -211 201 -406 360 -457 372 -15 3 -31 10
-38 15 -17 14 -70 13 -88 -2 -27 -23 -19 -88 18 -137 66 -88 141 -188 147
-193 3 -3 27 -32 55 -65 157 -189 327 -346 433 -399 17 -9 32 -21 32 -26 0
-16 -130 -77 -334 -157 -105 -41 -223 -89 -262 -108 -161 -75 -286 -118 -459
-158 -77 -17 -86 -14 -74 25 17 60 -55 303 -153 518 -49 107 -143 258 -189
305 -21 22 -48 52 -60 68 -27 36 -71 37 -104 1 -42 -45 -37 -71 66 -334 16
-41 29 -79 29 -84 0 -4 16 -49 36 -100 82 -210 141 -322 211 -399 19 -22 33
-40 31 -42 -4 -4 -311 -62 -398 -75 -30 -5 -95 -15 -145 -24 -49 -8 -130 -19
-180 -26 -49 -6 -119 -15 -155 -20 -61 -9 -116 -15 -320 -40 -105 -13 -577
-26 -613 -16 -24 6 -25 8 -15 37 12 34 6 210 -12 404 -6 61 -15 160 -20 220
-22 256 -43 355 -81 375 -56 30 -102 -11 -118 -104 -15 -85 -15 -418 -1 -591
12 -145 37 -244 70 -280 10 -11 20 -29 22 -40 3 -19 -2 -20 -172 -18 -96 1
-204 6 -240 11 -51 8 -75 6 -110 -6 -62 -21 -492 -10 -705 17 -82 11 -206 25
-275 31 -126 11 -189 19 -332 42 -89 14 -85 7 -64 119 26 134 48 243 57 284 5
22 14 63 19 90 5 28 15 70 20 95 13 57 34 341 32 438 -2 93 -12 112 -57 112
-29 0 -39 -6 -59 -37 -14 -21 -30 -60 -36 -86 -6 -26 -23 -89 -39 -140 -36
-113 -65 -240 -85 -372 -17 -111 -37 -392 -30 -421 2 -11 0 -25 -5 -33 -8 -12
-23 -11 -98 8 -298 74 -602 184 -798 288 -55 30 -191 99 -302 154 -111 55
-206 106 -212 113 -17 20 8 54 113 156 54 52 132 136 174 185 41 50 114 132
161 183 114 123 131 152 131 224 0 51 -3 59 -31 82 -38 33 -53 32 -111 -2
-103 -60 -219 -173 -304 -298 -12 -17 -65 -84 -117 -148 -85 -103 -122 -153
-181 -249 l-17 -28 -77 63 c-306 248 -468 421 -620 663 -84 133 -143 256 -187
388 -52 157 -65 237 -65 412 0 231 20 356 91 569 56 166 115 286 187 381 33
44 94 123 134 176 40 52 98 129 128 170 72 97 119 149 136 149 7 0 66 -31 131
-68 125 -73 184 -106 273 -155 30 -16 60 -33 65 -37 6 -5 60 -33 122 -64 62
-31 115 -60 118 -65 5 -10 -24 -155 -51 -248 l-15 -53 -100 0 c-86 0 -115 -5
-192 -31 -151 -50 -237 -106 -296 -194 -29 -43 -51 -106 -51 -149 0 -62 69
-154 135 -180 92 -36 260 -47 354 -21 127 33 232 109 278 198 34 68 41 166 18
242 -18 56 -18 58 4 148 12 51 27 112 33 137 18 80 18 79 36 73 9 -4 37 -19
62 -33 25 -15 135 -69 245 -121 l200 -93 225 -8 c124 -4 266 -12 317 -18 50
-5 122 -10 158 -10 57 0 72 -4 110 -30 24 -16 47 -30 52 -30 4 0 57 -29 116
-65 60 -36 110 -65 112 -65 1 0 32 -17 66 -38 35 -21 129 -73 209 -114 195
-102 210 -111 210 -128 0 -8 -27 -37 -60 -65 -96 -81 -180 -234 -180 -328 0
-50 34 -120 78 -158 107 -94 259 -112 465 -53 124 35 260 141 305 236 33 71
31 186 -4 255 -61 124 -201 193 -389 193 -52 0 -67 5 -110 33 -28 19 -149 85
-270 147 -121 62 -231 120 -245 129 -14 9 -42 26 -63 36 -21 11 -48 29 -60 40
l-22 20 75 7 c41 5 228 12 415 17 317 9 401 16 605 52 176 30 380 58 561 75
l67 7 132 -126 c125 -119 164 -151 353 -291 42 -31 77 -59 77 -61 0 -1 -15
-25 -33 -52 -52 -77 -81 -181 -74 -267 11 -138 42 -196 132 -241 107 -53 229
-35 365 56 137 92 216 203 241 342 18 97 1 168 -55 223 -65 66 -193 90 -321
59 -118 -27 -126 -28 -153 -14 -15 8 -62 39 -104 71 -42 31 -86 62 -97 68 -56
29 -285 236 -277 249 3 4 31 11 63 15 107 13 197 25 263 35 156 23 223 32 348
45 73 8 139 20 147 26 11 9 20 7 41 -9 36 -28 65 -26 95 5 l24 26 3 504 c2
316 6 504 12 504 10 0 46 -47 157 -206 34 -49 70 -98 80 -109 11 -11 76 -85
146 -165 126 -144 127 -145 127 -195 0 -57 42 -157 81 -191 102 -90 226 -144
349 -151 158 -10 260 27 324 116 28 39 31 50 31 120 0 70 -3 80 -34 124 -62
90 -177 144 -365 173 -116 17 -173 14 -243 -12 -25 -10 -47 -13 -56 -8 -27 17
-260 279 -318 359 -98 135 -141 194 -206 278 l-63 80 0 101 c0 56 3 112 7 125
7 27 -21 26 318 1z"/>
<path d="M9975 11390 c-29 -11 -44 -32 -51 -68 -10 -50 28 -77 118 -86 40 -3
109 -11 153 -16 44 -6 146 -13 226 -16 143 -6 146 -6 167 17 27 28 28 50 3 80
-18 22 -29 24 -143 30 -228 12 -356 27 -398 49 -43 22 -46 22 -75 10z"/>
<path d="M8885 11305 c-52 -32 -240 -107 -335 -134 -42 -11 -105 -23 -140 -27
-93 -8 -107 -12 -130 -36 -28 -30 -25 -62 7 -88 25 -20 35 -21 108 -15 181 16
529 144 590 216 29 35 31 56 9 87 -20 29 -58 28 -109 -3z"/>
<path d="M9760 10603 c-8 -3 -26 -16 -40 -29 -38 -35 -122 -73 -187 -85 -75
-14 -187 -5 -252 21 -69 27 -97 26 -117 -5 -38 -57 36 -125 156 -145 195 -31
368 9 484 111 37 33 46 47 46 74 0 49 -42 75 -90 58z"/>
</g>
</svg>
